<?xml version="1.0" encoding="UTF-8"?>
<svg xmlns="http://www.w3.org/2000/svg" width="440" height="240" viewBox="0 0 440 240">
<line x1="20" y1="20" x2="20" y2="170" stroke="#ddd" stroke-width="1" />
<text x="22" y="15" font-family="Arial" font-size="12">0</text>
<line x1="40" y1="20" x2="40" y2="170" stroke="#ddd" stroke-width="1" />
<text x="42" y="15" font-family="Arial" font-size="12">1</text>
<line x1="60" y1="20" x2="60" y2="170" stroke="#ddd" stroke-width="1" />
<text x="62" y="15" font-family="Arial" font-size="12">2</text>
<line x1="80" y1="20" x2="80" y2="170" stroke="#ddd" stroke-width="1" />
<text x="82" y="15" font-family="Arial" font-size="12">3</text>
<line x1="100" y1="20" x2="100" y2="170" stroke="#ddd" stroke-width="1" />
<text x="102" y="15" font-family="Arial" font-size="12">4</text>
<line x1="120" y1="20" x2="120" y2="170" stroke="#ddd" stroke-width="1" />
<text x="122" y="15" font-family="Arial" font-size="12">5</text>
<line x1="140" y1="20" x2="140" y2="170" stroke="#ddd" stroke-width="1" />
<text x="142" y="15" font-family="Arial" font-size="12">6</text>
<line x1="160" y1="20" x2="160" y2="170" stroke="#ddd" stroke-width="1" />
<text x="162" y="15" font-family="Arial" font-size="12">7</text>
<line x1="180" y1="20" x2="180" y2="170" stroke="#ddd" stroke-width="1" />
<text x="182" y="15" font-family="Arial" font-size="12">8</text>
<line x1="200" y1="20" x2="200" y2="170" stroke="#ddd" stroke-width="1" />
<text x="202" y="15" font-family="Arial" font-size="12">9</text>
<line x1="220" y1="20" x2="220" y2="170" stroke="#ddd" stroke-width="1" />
<text x="222" y="15" font-family="Arial" font-size="12">10</text>
<line x1="240" y1="20" x2="240" y2="170" stroke="#ddd" stroke-width="1" />
<text x="242" y="15" font-family="Arial" font-size="12">11</text>
<line x1="260" y1="20" x2="260" y2="170" stroke="#ddd" stroke-width="1" />
<text x="262" y="15" font-family="Arial" font-size="12">12</text>
<line x1="280" y1="20" x2="280" y2="170" stroke="#ddd" stroke-width="1" />
<text x="282" y="15" font-family="Arial" font-size="12">13</text>
<line x1="300" y1="20" x2="300" y2="170" stroke="#ddd" stroke-width="1" />
<text x="302" y="15" font-family="Arial" font-size="12">14</text>
<line x1="320" y1="20" x2="320" y2="170" stroke="#ddd" stroke-width="1" />
<text x="322" y="15" font-family="Arial" font-size="12">15</text>
<line x1="340" y1="20" x2="340" y2="170" stroke="#ddd" stroke-width="1" />
<text x="342" y="15" font-family="Arial" font-size="12">16</text>
<line x1="360" y1="20" x2="360" y2="170" stroke="#ddd" stroke-width="1" />
<text x="362" y="15" font-family="Arial" font-size="12">17</text>
<line x1="380" y1="20" x2="380" y2="170" stroke="#ddd" stroke-width="1" />
<text x="382" y="15" font-family="Arial" font-size="12">18</text>
<line x1="400" y1="20" x2="400" y2="170" stroke="#ddd" stroke-width="1" />
<text x="402" y="15" font-family="Arial" font-size="12">19</text>
<line x1="420" y1="20" x2="420" y2="170" stroke="#ddd" stroke-width="1" />
<text x="422" y="15" font-family="Arial" font-size="12">20</text>
<text x="2" y="40" font-family="Arial" font-size="12">t01</text>
<rect x="20" y="20" width="400" height="24" fill="#f8f8f8" stroke="#eee" />
<rect x="20" y="20" width="100" height="20" fill="#ffffff" stroke="#bbb" stroke-width="1" />
<rect x="120" y="20" width="100" height="20" fill="#FF0000" stroke="#333" stroke-width="1" />
<text x="2" y="70" font-family="Arial" font-size="12">t02</text>
<rect x="20" y="50" width="400" height="24" fill="#f8f8f8" stroke="#eee" />
<rect x="20" y="50" width="20" height="20" fill="#FFA500" stroke="#333" stroke-width="1" />
<rect x="60" y="50" width="60" height="20" fill="#FFA500" stroke="#333" stroke-width="1" />
<text x="2" y="100" font-family="Arial" font-size="12">t03</text>
<rect x="20" y="80" width="400" height="24" fill="#f8f8f8" stroke="#eee" />
<rect x="40" y="80" width="20" height="20" fill="#FFFF00" stroke="#333" stroke-width="1" />
<text x="2" y="130" font-family="Arial" font-size="12">t04</text>
<rect x="20" y="110" width="400" height="24" fill="#f8f8f8" stroke="#eee" />
<rect x="120" y="110" width="180" height="20" fill="#ffffff" stroke="#bbb" stroke-width="1" />
<rect x="300" y="110" width="120" height="20" fill="#008000" stroke="#333" stroke-width="1" />
<text x="2" y="160" font-family="Arial" font-size="12">t05</text>
<rect x="20" y="140" width="400" height="24" fill="#f8f8f8" stroke="#eee" />
<rect x="160" y="140" width="60" height="20" fill="#ffffff" stroke="#bbb" stroke-width="1" />
<rect x="220" y="140" width="80" height="20" fill="#0000FF" stroke="#333" stroke-width="1" />
<text x="20" y="190" font-family="Arial" font-size="12">Legenda: retângulos coloridos = execução da tarefa</text>
</svg>
